<?xml version="1.0" encoding="utf-8"?>
<!-- Generator: Adobe Illustrator 21.0.0, SVG Export Plug-In . SVG Version: 6.00 Build 0)  -->
<svg version="1.1" id="Layer_1" xmlns="http://www.w3.org/2000/svg" xmlns:xlink="http://www.w3.org/1999/xlink" x="0px" y="0px"
	 viewBox="0 0 295.2 295.1" style="enable-background:new 0 0 295.2 295.1;" xml:space="preserve">
<style type="text/css">
	.st0{display:none;}
	.st1{display:inline;fill:#072C58;}
	.st2{display:inline;}
	.st3{fill:#072C58;}
	.st4{fill:#FFFFFF;}
	.st5{fill:#003366;}
</style>
<g id="Guides" class="st0">
</g>
<g id="Layer_10" class="st0">
	<rect x="-128.8" y="-119.9" class="st1" width="512" height="512"/>
</g>
<g id="Hamburger" class="st0">
	<path class="st1" d="M294.7,48.1h-335c-13.2,0-24-10.8-24-24l0,0c0-13.2,10.8-24,24-24h335c13.2,0,24,10.8,24,24l0,0
		C318.7,37.3,307.9,48.1,294.7,48.1z M294.7,160.1h-335c-13.2,0-24-10.8-24-24l0,0c0-13.2,10.8-24,24-24h335c13.2,0,24,10.8,24,24
		l0,0C318.7,149.3,307.9,160.1,294.7,160.1z M294.7,272.1h-335c-13.2,0-24-10.8-24-24l0,0c0-13.2,10.8-24,24-24h335
		c13.2,0,24,10.8,24,24l0,0C318.7,261.3,307.9,272.1,294.7,272.1z"/>
</g>
<g id="Arrow_Right" class="st0">
	<g class="st2">
		<path class="st3" d="M222.8,42.9L58.9,155.8c-10.9,7.5-25.9,4.7-33.4-6.2l0,0c-7.5-10.9-4.7-25.9,6.2-33.4L195.6,3.3
			c10.9-7.5,25.9-4.7,33.4,6.2l0,0C236.4,20.4,233.6,35.4,222.8,42.9z"/>
		<g>
			<path class="st3" d="M195.5,268.8L31.6,155.9c-10.9-7.5-13.6-22.5-6.2-33.4l0,0c7.5-10.9,22.5-13.6,33.4-6.2l163.9,112.9
				c10.9,7.5,13.6,22.5,6.2,33.4l0,0C221.4,273.5,206.4,276.3,195.5,268.8z"/>
		</g>
	</g>
</g>
<g id="Arrow_Right_White" class="st0">
	<g class="st2">
		<path class="st4" d="M222.8,42.9L58.9,155.8c-10.9,7.5-25.9,4.7-33.4-6.2l0,0c-7.5-10.9-4.7-25.9,6.2-33.4L195.6,3.3
			c10.9-7.5,25.9-4.7,33.4,6.2l0,0C236.4,20.4,233.6,35.4,222.8,42.9z"/>
		<g>
			<path class="st4" d="M195.5,268.8L31.6,155.9c-10.9-7.5-13.6-22.5-6.2-33.4l0,0c7.5-10.9,22.5-13.6,33.4-6.2l163.9,112.9
				c10.9,7.5,13.6,22.5,6.2,33.4l0,0C221.4,273.5,206.4,276.3,195.5,268.8z"/>
		</g>
	</g>
</g>
<g id="Arrow_Left" class="st0">
	<g class="st2">
		<path class="st3" d="M58.9,3.4l163.9,112.9c10.9,7.5,13.6,22.5,6.2,33.4l0,0c-7.5,10.9-22.5,13.6-33.4,6.2l-164-113
			C20.7,35.4,18,20.4,25.4,9.5l0,0C33-1.3,48-4.1,58.9,3.4z"/>
		<g>
			<path class="st3" d="M31.6,229.3l163.9-112.9c10.9-7.5,25.9-4.7,33.4,6.2l0,0c7.5,10.9,4.7,25.9-6.2,33.4L58.9,268.8
				c-10.9,7.5-25.9,4.7-33.4-6.2l0,0C18,251.8,20.8,236.8,31.6,229.3z"/>
		</g>
	</g>
</g>
<g id="Arrow_Left_White" class="st0">
	<g class="st2">
		<path class="st4" d="M58.9,3.4l163.9,112.9c10.9,7.5,13.6,22.5,6.2,33.4l0,0c-7.5,10.9-22.5,13.6-33.4,6.2l-164-113
			C20.7,35.4,18,20.4,25.4,9.5l0,0C33-1.3,48-4.1,58.9,3.4z"/>
		<g>
			<path class="st4" d="M31.6,229.3l163.9-112.9c10.9-7.5,25.9-4.7,33.4,6.2l0,0c7.5,10.9,4.7,25.9-6.2,33.4L58.9,268.8
				c-10.9,7.5-25.9,4.7-33.4-6.2l0,0C18,251.8,20.8,236.8,31.6,229.3z"/>
		</g>
	</g>
</g>
<g id="Description_x2F_Info" class="st0">
	<g class="st2">
		<path class="st4" d="M103.2,240.1v-151h48v151c0,13.2-10.8,24-24,24l0,0C114,264.1,103.2,253.3,103.2,240.1z"/>
		<circle class="st4" cx="127.2" cy="35.1" r="27"/>
	</g>
</g>
<g id="Exit_Resume" class="st0">
	<g class="st2">
		<path class="st4" d="M8.6,307.3V185.4l30-0.3v122.2c0,10-5,22-14,22h-1C13.6,329.3,8.6,318.3,8.6,307.3z"/>
		<path class="st4" d="M295.6-118.7H21c-6.7,0-12.1,5.4-12.1,12.1v147h29.6l0.6-110.9h224.4v18.7L185.4,2.5v380.6c0,0-1,6.1,3,7.5
			c4.2,1.5,9.6-2.5,9.6-2.5L301.7,304c0,0,3-2.1,4.7-5.1s1.3-6,1.3-6v-399.5C307.8-113.3,302.3-118.7,295.6-118.7z M223.2,212.2
			c-7.5,0-15.8-10-15.5-28.4c0.8-15.7,8.3-27.6,15.5-27.6c8.8,0,15.8,12.5,15.8,28S232,212.2,223.2,212.2z M149.1,104.6
			c4.8,4.8,3.8,12.6-1,17.4l-39,50c-4.5,3.2-13.5,2.2-17.4-2c-4.8-4.8-3.1-10.8-3-17.4l0.2-16H-26.2c-22.1,0.6-27.1-16.6-27.1-23.4
			c0-6.8,5-24,27.2-24.2H88.7l0.1-16c-0.1-4.8-1.8-12.6,3-17.4c4.8-4.8,11.9-4.4,18.4,0L149.1,104.6z"/>
	</g>
</g>
<g id="Description_x2F_Info_1_">
	<g>
		<path class="st5" d="M123.6,251.6v-151h48v151c0,13.2-10.8,24-24,24l0,0C134.4,275.5,123.6,264.8,123.6,251.6z"/>
		<circle class="st5" cx="147.6" cy="46.6" r="27"/>
	</g>
</g>
</svg>
