<?xml version="1.0" encoding="utf-8"?>
<!-- Generator: Adobe Illustrator 21.0.0, SVG Export Plug-In . SVG Version: 6.00 Build 0)  -->
<svg version="1.1" id="Layer_1" xmlns="http://www.w3.org/2000/svg" xmlns:xlink="http://www.w3.org/1999/xlink" x="0px" y="0px"
	 viewBox="0 0 280 279.9" style="enable-background:new 0 0 280 279.9;" xml:space="preserve">
<style type="text/css">
	.st0{display:none;}
	.st1{display:inline;fill:#072C58;}
	.st2{display:inline;}
	.st3{fill:#072C58;}
	.st4{fill:#FFFFFF;}
</style>
<g id="Guides" class="st0">
</g>
<g id="Layer_10" class="st0">
	<rect x="-150" y="-113" class="st1" width="512" height="512"/>
</g>
<g id="Hamburger" class="st0">
	<path class="st1" d="M273.5,55h-335c-13.2,0-24-10.8-24-24l0,0c0-13.2,10.8-24,24-24h335c13.2,0,24,10.8,24,24l0,0
		C297.5,44.2,286.7,55,273.5,55z M273.5,167h-335c-13.2,0-24-10.8-24-24l0,0c0-13.2,10.8-24,24-24h335c13.2,0,24,10.8,24,24l0,0
		C297.5,156.2,286.7,167,273.5,167z M273.5,279h-335c-13.2,0-24-10.8-24-24l0,0c0-13.2,10.8-24,24-24h335c13.2,0,24,10.8,24,24l0,0
		C297.5,268.2,286.7,279,273.5,279z"/>
</g>
<g id="Arrow_Right" class="st0">
	<g class="st2">
		<path class="st3" d="M235.6,46.8L71.7,159.7c-10.9,7.5-25.9,4.7-33.4-6.2l0,0c-7.5-10.9-4.7-25.9,6.2-33.4L208.4,7.2
			c10.9-7.5,25.9-4.7,33.4,6.2l0,0C249.2,24.3,246.4,39.3,235.6,46.8z"/>
		<g>
			<path class="st3" d="M208.3,272.7L44.4,159.8c-10.9-7.5-13.6-22.5-6.2-33.4l0,0c7.5-10.9,22.5-13.6,33.4-6.2l163.9,112.9
				c10.9,7.5,13.6,22.5,6.2,33.4l0,0C234.2,277.4,219.2,280.2,208.3,272.7z"/>
		</g>
	</g>
</g>
<g id="Arrow_Right_White" class="st0">
	<g class="st2">
		<path class="st4" d="M201.6,49.8L37.7,162.7c-10.9,7.5-25.9,4.7-33.4-6.2l0,0c-7.5-10.9-4.7-25.9,6.2-33.4L174.4,10.2
			c10.9-7.5,25.9-4.7,33.4,6.2l0,0C215.2,27.3,212.4,42.3,201.6,49.8z"/>
		<g>
			<path class="st4" d="M174.3,275.7L10.4,162.8c-10.9-7.5-13.6-22.5-6.2-33.4l0,0c7.5-10.9,22.5-13.6,33.4-6.2l163.9,112.9
				c10.9,7.5,13.6,22.5,6.2,33.4l0,0C200.2,280.4,185.2,283.2,174.3,275.7z"/>
		</g>
	</g>
</g>
<g id="Arrow_Left" class="st0">
	<g class="st2">
		<path class="st3" d="M37.7,10.3l163.9,112.9c10.9,7.5,13.6,22.5,6.2,33.4l0,0c-7.5,10.9-22.5,13.6-33.4,6.2l-164-113
			C-0.5,42.3-3.2,27.3,4.2,16.4l0,0C11.8,5.6,26.8,2.8,37.7,10.3z"/>
		<g>
			<path class="st3" d="M10.4,236.2l163.9-112.9c10.9-7.5,25.9-4.7,33.4,6.2l0,0c7.5,10.9,4.7,25.9-6.2,33.4L37.7,275.7
				c-10.9,7.5-25.9,4.7-33.4-6.2l0,0C-3.2,258.7-0.4,243.7,10.4,236.2z"/>
		</g>
	</g>
</g>
<g id="Arrow_Left_White" class="st0">
	<g class="st2">
		<path class="st4" d="M37.7,10.3l163.9,112.9c10.9,7.5,13.6,22.5,6.2,33.4l0,0c-7.5,10.9-22.5,13.6-33.4,6.2l-164-113
			C-0.5,42.3-3.2,27.3,4.2,16.4l0,0C11.8,5.6,26.8,2.8,37.7,10.3z"/>
		<g>
			<path class="st4" d="M10.4,236.2l163.9-112.9c10.9-7.5,25.9-4.7,33.4,6.2l0,0c7.5,10.9,4.7,25.9-6.2,33.4L37.7,275.7
				c-10.9,7.5-25.9,4.7-33.4-6.2l0,0C-3.2,258.7-0.4,243.7,10.4,236.2z"/>
		</g>
	</g>
</g>
<g id="Description_x2F_Info" class="st0">
	<g class="st2">
		<path class="st4" d="M82,247V96h48v151c0,13.2-10.8,24-24,24l0,0C92.8,271,82,260.2,82,247z"/>
		<circle class="st4" cx="106" cy="42" r="27"/>
	</g>
</g>
<g id="Zoom" class="st0">
	<g class="st2">
		<path class="st4" d="M201.5,272.4l-68.1-68.1l-14-14L155,158l15.3,15.3l65.1,65.1c9.3,9.3,9.3,24.6,0,33.9l0,0
			C226.1,281.7,210.8,281.7,201.5,272.4z"/>
		<path class="st4" d="M200.8,117.9c0,61.3-49.7,111-111,111s-111-49.7-111-111s49.7-111,111-111S200.8,56.6,200.8,117.9z
			 M89.8,51.7c-36.6,0-66.2,29.6-66.2,66.2s29.6,66.2,66.2,66.2s66.2-29.6,66.2-66.2S126.3,51.7,89.8,51.7z"/>
	</g>
</g>
<g id="Exit_Resume" class="st0">
	<g class="st2">
		<path class="st4" d="M-12.6,314.2V192.3l30-0.3v122.2c0,10-5,22-14,22h-1C-7.6,336.2-12.6,325.2-12.6,314.2z"/>
		<path class="st4" d="M274.4-111.8H-0.2c-6.7,0-12.1,5.4-12.1,12.1v147h29.6l0.6-110.9h224.4v18.7L164.2,9.4V390c0,0-1,6.1,3,7.5
			c4.2,1.5,9.6-2.5,9.6-2.5l103.7-84.1c0,0,3-2.1,4.7-5.1s1.3-6,1.3-6V-99.7C286.6-106.4,281.1-111.8,274.4-111.8z M202,219.1
			c-7.5,0-15.8-10-15.5-28.4c0.8-15.7,8.3-27.6,15.5-27.6c8.8,0,15.8,12.5,15.8,28S210.8,219.1,202,219.1z M127.9,111.5
			c4.8,4.8,3.8,12.6-1,17.4l-39,50c-4.5,3.2-13.5,2.2-17.4-2c-4.8-4.8-3.1-10.8-3-17.4l0.2-16H-47.4c-22.1,0.6-27.1-16.6-27.1-23.4
			c0-6.8,5-24,27.2-24.2H67.5l0.1-16c-0.1-4.8-1.8-12.6,3-17.4c4.8-4.8,11.9-4.4,18.4,0L127.9,111.5z"/>
	</g>
</g>
<g id="Arrow_Left_White_1_">
	<g>
		<path class="st3" d="M71.7,7.3l163.9,112.9c10.9,7.5,13.6,22.5,6.2,33.4l0,0c-7.5,10.9-22.5,13.6-33.4,6.2l-164-113
			c-10.9-7.5-13.6-22.5-6.2-33.4l0,0C45.8,2.6,60.8-0.2,71.7,7.3z"/>
		<g>
			<path class="st3" d="M44.4,233.2l163.9-112.9c10.9-7.5,25.9-4.7,33.4,6.2l0,0c7.5,10.9,4.7,25.9-6.2,33.4L71.7,272.7
				c-10.9,7.5-25.9,4.7-33.4-6.2l0,0C30.8,255.7,33.6,240.7,44.4,233.2z"/>
		</g>
	</g>
</g>
</svg>
