<?xml version="1.0" encoding="utf-8"?>
<!-- Generator: Adobe Illustrator 21.0.0, SVG Export Plug-In . SVG Version: 6.00 Build 0)  -->
<svg version="1.1" xmlns="http://www.w3.org/2000/svg" xmlns:xlink="http://www.w3.org/1999/xlink" x="0px" y="0px"
	 viewBox="0 0 512 512" style="enable-background:new 0 0 512 512;" xml:space="preserve">
<style type="text/css">
	.st0{display:none;}
	.st1{display:inline;fill:#072C58;}
	.st2{display:inline;}
	.st3{fill:#072C58;}
	.st4{fill:#FFFFFF;}
</style>
<g id="Guides" class="st0">
</g>
<g id="Layer_10" class="st0">
	<rect class="st1" width="512" height="512"/>
</g>
<g id="Hamburger" class="st0">
	<path class="st1" d="M423.5,168h-335c-13.2,0-24-10.8-24-24v0c0-13.2,10.8-24,24-24h335c13.2,0,24,10.8,24,24v0
		C447.5,157.2,436.7,168,423.5,168z M423.5,280h-335c-13.2,0-24-10.8-24-24v0c0-13.2,10.8-24,24-24h335c13.2,0,24,10.8,24,24v0
		C447.5,269.2,436.7,280,423.5,280z M423.5,392h-335c-13.2,0-24-10.8-24-24v0c0-13.2,10.8-24,24-24h335c13.2,0,24,10.8,24,24v0
		C447.5,381.2,436.7,392,423.5,392z"/>
</g>
<g id="Arrow_Right" class="st0">
	<g class="st2">
		<path class="st3" d="M351.6,162.8L187.7,275.7c-10.9,7.5-25.9,4.7-33.4-6.2l0,0c-7.5-10.9-4.7-25.9,6.2-33.4l163.9-112.9
			c10.9-7.5,25.9-4.7,33.4,6.2l0,0C365.2,140.3,362.4,155.3,351.6,162.8z"/>
		<g>
			<path class="st3" d="M324.3,388.7L160.4,275.8c-10.9-7.5-13.6-22.5-6.2-33.4l0,0c7.5-10.9,22.5-13.6,33.4-6.2l163.9,112.9
				c10.9,7.5,13.6,22.5,6.2,33.4l0,0C350.2,393.4,335.2,396.2,324.3,388.7z"/>
		</g>
	</g>
</g>
<g id="Arrow_Right_White" class="st0">
	<g class="st2">
		<path class="st4" d="M351.6,162.8L187.7,275.7c-10.9,7.5-25.9,4.7-33.4-6.2l0,0c-7.5-10.9-4.7-25.9,6.2-33.4l163.9-112.9
			c10.9-7.5,25.9-4.7,33.4,6.2l0,0C365.2,140.3,362.4,155.3,351.6,162.8z"/>
		<g>
			<path class="st4" d="M324.3,388.7L160.4,275.8c-10.9-7.5-13.6-22.5-6.2-33.4l0,0c7.5-10.9,22.5-13.6,33.4-6.2l163.9,112.9
				c10.9,7.5,13.6,22.5,6.2,33.4l0,0C350.2,393.4,335.2,396.2,324.3,388.7z"/>
		</g>
	</g>
</g>
<g id="Arrow_Left" class="st0">
	<g class="st2">
		<path class="st3" d="M187.7,123.3l163.9,112.9c10.9,7.5,13.6,22.5,6.2,33.4l0,0c-7.5,10.9-22.5,13.6-33.4,6.2L160.4,162.8
			c-10.9-7.5-13.6-22.5-6.2-33.4l0,0C161.8,118.6,176.8,115.8,187.7,123.3z"/>
		<g>
			<path class="st3" d="M160.4,349.2l163.9-112.9c10.9-7.5,25.9-4.7,33.4,6.2l0,0c7.5,10.9,4.7,25.9-6.2,33.4L187.7,388.7
				c-10.9,7.5-25.9,4.7-33.4-6.2l0,0C146.8,371.7,149.6,356.7,160.4,349.2z"/>
		</g>
	</g>
</g>
<g id="Arrow_Left_White">
	<g>
		<path class="st4" d="M187.7,123.3l163.9,112.9c10.9,7.5,13.6,22.5,6.2,33.4l0,0c-7.5,10.9-22.5,13.6-33.4,6.2L160.4,162.8
			c-10.9-7.5-13.6-22.5-6.2-33.4l0,0C161.8,118.6,176.8,115.8,187.7,123.3z"/>
		<g>
			<path class="st4" d="M160.4,349.2l163.9-112.9c10.9-7.5,25.9-4.7,33.4,6.2l0,0c7.5,10.9,4.7,25.9-6.2,33.4L187.7,388.7
				c-10.9,7.5-25.9,4.7-33.4-6.2l0,0C146.8,371.7,149.6,356.7,160.4,349.2z"/>
		</g>
	</g>
</g>
<g id="Description_x2F_Info" class="st0">
	<g class="st2">
		<path class="st4" d="M232,360V209h48v151c0,13.2-10.8,24-24,24h0C242.8,384,232,373.2,232,360z"/>
		<circle class="st4" cx="256" cy="155" r="27"/>
	</g>
</g>
<g id="Zoom" class="st0">
	<g class="st2">
		<path class="st4" d="M351.5,385.4l-68.1-68.1l-14-14L305,271l15.3,15.3l65.1,65.1c9.3,9.3,9.3,24.6,0,33.9l0,0
			C376.1,394.7,360.8,394.7,351.5,385.4z"/>
		<path class="st4" d="M350.8,230.9c0,61.3-49.7,111-111,111s-111-49.7-111-111s49.7-111,111-111S350.8,169.6,350.8,230.9z
			 M239.8,164.7c-36.6,0-66.2,29.6-66.2,66.2s29.6,66.2,66.2,66.2s66.2-29.6,66.2-66.2S276.3,164.7,239.8,164.7z"/>
	</g>
</g>
<g id="Exit_Resume" class="st0">
	<g class="st2">
		<path class="st4" d="M137.4,427.2V305.3l30-0.3v122.2c0,10-5,22-14,22h-1C142.4,449.2,137.4,438.2,137.4,427.2z"/>
		<path class="st4" d="M424.4,1.2H149.8c-6.7,0-12.1,5.4-12.1,12.1v147h29.6l0.6-110.9h224.4v18.7l-78.1,54.3V503c0,0-1,6.1,3,7.5
			c4.2,1.5,9.6-2.5,9.6-2.5l103.7-84.1c0,0,3-2.1,4.7-5.1c1.7-3,1.3-6,1.3-6V13.3C436.6,6.6,431.1,1.2,424.4,1.2z M352,332.1
			c-7.5,0-15.8-10-15.5-28.4c0.8-15.7,8.3-27.6,15.5-27.6c8.8,0,15.8,12.5,15.8,28C367.8,319.6,360.8,332.1,352,332.1z M277.9,224.5
			c4.8,4.8,3.8,12.6-1,17.4l-39,50c-4.5,3.2-13.5,2.2-17.4-2c-4.8-4.8-3.1-10.8-3-17.4l0.2-16H102.6c-22.1,0.6-27.1-16.6-27.1-23.4
			c0-6.8,5-24,27.2-24.2h114.8l0.1-16c-0.1-4.8-1.8-12.6,3-17.4c4.8-4.8,11.9-4.4,18.4,0L277.9,224.5z"/>
	</g>
</g>
</svg>
