<?xml version="1.0" encoding="utf-8"?>
<!-- Generator: Adobe Illustrator 21.0.0, SVG Export Plug-In . SVG Version: 6.00 Build 0)  -->
<svg version="1.1" xmlns="http://www.w3.org/2000/svg" xmlns:xlink="http://www.w3.org/1999/xlink" x="0px" y="0px"
	 viewBox="0 0 560.1 162.9" style="enable-background:new 0 0 560.1 162.9;" xml:space="preserve">
<style type="text/css">
	.st0{display:none;}
	.st1{display:inline;fill:#072C58;}
	.st2{fill:#FFFFFF;}
	.st3{fill:#D4C229;}
	.st4{opacity:0.5;fill:#FFFFFF;enable-background:new    ;}
</style>
<g id="Layer_2" class="st0">
	<rect class="st1" width="560.1" height="162.9"/>
</g>
<g id="Layer_1">
	<g>
		<g>
			<g>
				<path class="st2" d="M193.9,105.8h11.6v43.1h28.3v8.4h-39.9V105.8z"/>
				<path class="st2" d="M250.4,141.8c0,7.5,6.2,10.4,12.3,10.4c3.2,0,8-1.1,9.1-4.6h11.6c-1.1,8.9-13.6,11-21,11
					c-18.2,0-23.3-9.4-23.3-19.3s5.1-19.3,23.3-19.3c10.3,0,22,4.6,22,19.5v2.2h-34V141.8z M273.1,135.4c-0.6-6.5-5.5-8.8-11.4-8.8
					c-5.3,0-10.7,2.7-11.3,8.8H273.1z"/>
				<path class="st2" d="M303.3,146.3c0.8,4.6,3.3,5.9,8.7,5.9c6.3,0,8.9-1.8,8.9-4.4c0-1.8-1.3-3-5.2-3.5l-8.4-1.1
					c-12.3-1.6-14.1-7.1-14.1-11.3c0-5.3,4.3-11.8,19.5-11.8c8.6,0,18.4,2.6,18.4,12h-11.3c-0.4-4.1-3.2-5.6-8.8-5.6
					c-4.1,0-6.6,1.5-6.6,3.9c0,1.9,0.8,3.1,6.2,3.9l10.5,1.6c7.9,1.2,11.1,5.3,11.1,10.6c0,6.4-4.7,12-19.1,12
					c-14.3,0-20.4-2.5-21.3-12.3h11.5V146.3z"/>
				<path class="st2" d="M350.8,146.3c0.8,4.6,3.3,5.9,8.7,5.9c6.3,0,8.9-1.8,8.9-4.4c0-1.8-1.3-3-5.2-3.5l-8.4-1.1
					c-12.3-1.6-14.1-7.1-14.1-11.3c0-5.3,4.3-11.8,19.5-11.8c8.6,0,18.4,2.6,18.4,12h-11.3c-0.4-4.1-3.2-5.6-8.8-5.6
					c-4.1,0-6.6,1.5-6.6,3.9c0,1.9,0.8,3.1,6.2,3.9l10.5,1.6c7.9,1.2,11.1,5.3,11.1,10.6c0,6.4-4.7,12-19.1,12
					c-14.3,0-20.4-2.5-21.3-12.3h11.5V146.3z"/>
				<path class="st2" d="M433,139.4c0,9.8-5.1,19.3-23.3,19.3c-18.2,0-23.3-9.4-23.3-19.3s5.1-19.3,23.3-19.3
					C427.8,120.2,433,129.6,433,139.4z M397.6,139.4c0,7,3.9,12.4,12.1,12.4s12-5.4,12-12.4s-3.8-12.4-12-12.4
					C401.5,127,397.6,132.4,397.6,139.4z"/>
				<path class="st2" d="M441.4,130c0-3.1-0.1-6.2-0.3-8.5h10.4c0.1,2,0.3,3.9,0.3,5.9h0.1c3.6-5.1,8.6-7.3,15.1-7.3
					c6.4,0,16.4,3.5,16.4,15.1v22h-10.8v-19c0-8.8-4.1-10.9-9.3-10.9c-5.6,0-11.1,3.9-11.1,12.6v17.3h-10.8L441.4,130L441.4,130z"/>
				<path class="st2" d="M503.9,146.3c0.8,4.6,3.3,5.9,8.7,5.9c6.3,0,8.9-1.8,8.9-4.4c0-1.8-1.3-3-5.2-3.5l-8.4-1.1
					c-12.3-1.6-14.1-7.1-14.1-11.3c0-5.3,4.3-11.8,19.5-11.8c8.6,0,18.4,2.6,18.4,12h-11.3c-0.4-4.1-3.2-5.6-8.8-5.6
					c-4.1,0-6.6,1.5-6.6,3.9c0,1.9,0.8,3.1,6.2,3.9l10.5,1.6c7.9,1.2,11.1,5.3,11.1,10.6c0,6.4-4.7,12-19.1,12
					c-14.3,0-20.4-2.5-21.3-12.3h11.5V146.3z"/>
			</g>
			<g>
				<polygon class="st2" points="32.7,41.3 32.7,36.3 136.4,36.3 136.4,41.3 				"/>
				<polygon class="st2" points="32.7,55.6 32.7,50.6 136.4,50.6 136.4,55.6 				"/>
			</g>
			<g>
				<polygon class="st2" points="58,102.7 58,97.7 136.4,97.7 136.4,102.7 				"/>
				<path class="st2" d="M31.1,100.2c0-4.7,3.8-8.5,8.5-8.5l0,0c4.7,0,8.5,3.8,8.5,8.5l0,0c0,4.7-3.8,8.5-8.5,8.5l0,0
					C34.9,108.7,31.1,104.9,31.1,100.2L31.1,100.2z M34.6,100.2c0,2.7,2.2,4.9,4.9,4.9l0,0c2.7,0,4.9-2.2,4.9-4.9l0,0
					c0-2.7-2.2-4.9-4.9-4.9l0,0C36.8,95.3,34.6,97.5,34.6,100.2L34.6,100.2z"/>
			</g>
			<g>
				<polygon class="st2" points="58,126.7 58,121.7 136.4,121.7 136.4,126.7 				"/>
				<path class="st2" d="M31.1,124.2c0-4.7,3.8-8.5,8.5-8.5l0,0c4.7,0,8.5,3.8,8.5,8.5l0,0c0,4.7-3.8,8.5-8.5,8.5l0,0
					C34.9,132.6,31.1,128.9,31.1,124.2L31.1,124.2z M34.6,124.2c0,2.7,2.2,4.9,4.9,4.9l0,0c2.7,0,4.9-2.2,4.9-4.9l0,0
					c0-2.7-2.2-4.9-4.9-4.9l0,0C36.8,119.3,34.6,121.5,34.6,124.2L34.6,124.2z"/>
			</g>
			<g>
				<polygon class="st2" points="58,78.8 58,73.8 136.4,73.8 136.4,78.8 				"/>
				<g>
					<circle class="st2" cx="39.5" cy="76.3" r="6.7"/>
					<path class="st2" d="M31.1,76.3c0-4.7,3.8-8.5,8.5-8.5l0,0c4.7,0,8.5,3.8,8.5,8.5l0,0c0,4.7-3.8,8.5-8.5,8.5l0,0
						C34.9,84.7,31.1,80.9,31.1,76.3L31.1,76.3z M34.6,76.3c0,2.7,2.2,4.9,4.9,4.9l0,0c2.7,0,4.9-2.2,4.9-4.9l0,0
						c0-2.7-2.2-4.9-4.9-4.9l0,0C36.8,71.3,34.6,73.5,34.6,76.3L34.6,76.3z"/>
				</g>
			</g>
			<polygon class="st3" points="32.1,74.4 36.8,70.2 40.3,74.3 54.4,59.2 59,63.4 40.2,83.7 			"/>
			<g>
				<g>
					<path class="st2" d="M548.8,9.4c5,0,9,4,9,9s-4,9-9,9s-9-4-9-9C539.7,13.4,543.8,9.4,548.8,9.4z M548.8,25.5
						c4.1,0,6.9-3.1,6.9-7.1s-2.8-7.1-6.9-7.1c-4.1,0-6.9,3.1-6.9,7.1C541.8,22.4,544.7,25.5,548.8,25.5z M545.2,13.4h3.9
						c2.6,0,3.9,0.8,3.9,3c0,1.8-1.1,2.6-2.6,2.7l2.7,4.4h-2.2l-2.6-4.4h-1.1v4.4h-2L545.2,13.4L545.2,13.4z M548.9,17.7
						c1,0,2-0.2,2-1.5c0-1.2-1.2-1.4-2-1.4h-1.7v2.9H548.9z"/>
				</g>
				<path class="st2" d="M534.3,91.9c0,3.6-2.9,6.5-6.5,6.5h-27.7c-3.6,0-6.5-2.9-6.5-6.5V15.3c0-3.6,2.9-6.5,6.5-6.5h27.7
					c3.6,0,6.5,2.9,6.5,6.5V91.9z"/>
				<path class="st2" d="M475.8,58h-43.2V15.3c0-3.6-2.9-6.5-6.5-6.5h-27.7c-3.6,0-6.5,2.9-6.5,6.5v76.6c0,2.9,1.9,5.3,4.5,6.2
					c0.8,0.4,1.8,0.6,2.8,0.6h76.6c3.6,0,6.5-2.9,6.5-6.5V64.5C482.3,60.9,479.4,58,475.8,58z"/>
				<path class="st2" d="M272.5,8.4h-34.6l0,0c-2.2,0-3.5,0-3.5,0c-6.7,0-12.8,1.1-18.4,3.3c-5.6,2.2-10.3,5.2-14.3,9.1
					s-7,8.6-9.2,14.2c-2.2,5.5-3.3,11.6-3.3,18.3c0,6.9,1.1,13.1,3.3,18.6c2.2,5.6,5.2,10.3,9.2,14.3s8.7,7,14.3,9.2
					s11.7,3.3,18.4,3.3h38c3.6,0,6.5-2.9,6.5-6.5V64.5c0-3.6-2.9-6.5-6.5-6.5h-34c-0.9,0-1.9,0-2.7,0c-1.1,0-2-0.2-2.9-0.5
					s-1.6-0.7-2.1-1.3s-0.7-1.4-0.7-2.6c0-1.1,0.2-2,0.7-2.6s1.2-1.1,2.1-1.4c0.9-0.3,1.8-0.5,2.9-0.5c1.1,0,2.2-0.1,3.3-0.1h33.5
					c3.6,0,6.5-2.9,6.5-6.5V14.9C279,11.3,276.1,8.4,272.5,8.4z"/>
				<path class="st2" d="M380.6,91.9V57.3l0,0c0-2.2,0-3.5,0-3.5c0-6.7-1.1-12.8-3.3-18.4c-2.2-5.6-5.2-10.3-9.1-14.3
					s-8.6-7-14.2-9.2c-5.5-2.2-11.6-3.3-18.3-3.3c-6.9,0-13.1,1.1-18.6,3.3c-5.6,2.2-10.3,5.2-14.3,9.2s-7,8.7-9.2,14.3
					s-3.3,11.7-3.3,18.4v38c0,3.6,2.9,6.5,6.5,6.5h27.6c3.6,0,6.5-2.9,6.5-6.5v-34c0-0.9,0-1.9,0-2.7c0-1.1,0.2-2,0.5-2.9
					s0.7-1.6,1.3-2.1c0.6-0.5,1.4-0.7,2.6-0.7c1.1,0,2,0.3,2.6,0.7c0.6,0.5,1.1,1.2,1.4,2.1c0.3,0.9,0.5,1.8,0.5,2.9
					c0,1.1,0.1,2.2,0.1,3.3v33.5c0,3.6,2.9,6.5,6.5,6.5h27.5C377.7,98.4,380.6,95.5,380.6,91.9z"/>
			</g>
		</g>
		<g>
			<path class="st4" d="M122.3,152.3H47.1c-19.8,0-36-16.2-36-36V46.6c0-19.8,16.2-36,36-36h75.2c19.8,0,36,16.2,36,36v69.7
				C158.3,136.1,142.1,152.3,122.3,152.3z M151.4,118.1V44.8c0-14.8-12.1-27-27-27H45.1c-14.9,0-27,12.1-27,27v73.4
				c0,14.8,12.1,27,27,27h79.3C139.2,145.1,151.4,133,151.4,118.1z"/>
			<path class="st2" d="M122.2,160.5H47.3c-24.9,0-45-20.1-45-45V47.4c0-24.9,20.1-45,45-45h74.9c24.9,0,45,20.1,45,45v68.1
				C167.2,140.4,147,160.5,122.2,160.5z M158.5,116.3V46.6c0-19.9-16.1-36-36-36H46.9c-19.9,0-36,16.1-36,36v69.7
				c0,19.9,16.1,36,36,36h75.6C142.4,152.3,158.5,136.2,158.5,116.3z"/>
		</g>
	</g>
</g>
</svg>
