<?xml version="1.0" encoding="utf-8"?>
<!-- Generator: Adobe Illustrator 21.0.0, SVG Export Plug-In . SVG Version: 6.00 Build 0)  -->
<svg version="1.1" id="Layer_1" xmlns="http://www.w3.org/2000/svg" xmlns:xlink="http://www.w3.org/1999/xlink" x="0px" y="0px"
	 viewBox="0 0 225 225" style="enable-background:new 0 0 225 225;" xml:space="preserve">
<style type="text/css">
	.st0{opacity:0.25;}
	.st1{fill:#FFFFFF;}
	.st2{fill:#003366;}
	.st3{fill:none;stroke:#003366;stroke-width:14;stroke-linecap:round;stroke-miterlimit:10;}
</style>
<g>
	<g class="st0">
		<circle class="st1" cx="112.5" cy="112.5" r="104.5"/>
	</g>
	<g>
		<path class="st2" d="M112.5,22c49.9,0,90.5,40.6,90.5,90.5S162.4,203,112.5,203S22,162.4,22,112.5S62.6,22,112.5,22 M112.5,8
			C54.8,8,8,54.8,8,112.5S54.8,217,112.5,217S217,170.2,217,112.5S170.2,8,112.5,8L112.5,8z"/>
	</g>
	<g>
		<g>
			<circle class="st1" cx="74" cy="127" r="7.5"/>
			<path class="st2" d="M74,126.5c0.3,0,0.5,0.2,0.5,0.5s-0.2,0.5-0.5,0.5s-0.5-0.2-0.5-0.5S73.7,126.5,74,126.5 M74,112.5
				c-8,0-14.5,6.5-14.5,14.5S66,141.5,74,141.5S88.5,135,88.5,127S82,112.5,74,112.5L74,112.5z"/>
		</g>
		<g>
			<circle class="st1" cx="151" cy="127" r="7.5"/>
			<path class="st2" d="M151,126.5c0.3,0,0.5,0.2,0.5,0.5s-0.2,0.5-0.5,0.5s-0.5-0.2-0.5-0.5S150.7,126.5,151,126.5 M151,112.5
				c-8,0-14.5,6.5-14.5,14.5s6.5,14.5,14.5,14.5s14.5-6.5,14.5-14.5S159,112.5,151,112.5L151,112.5z"/>
		</g>
	</g>
	<g>
		<path class="st3" d="M88.1,170.2c11.3,13.6,43.6,12.7,52.8-2.2"/>
	</g>
</g>
</svg>
